
<svg
  version="1.0"
  xmlns="http://www.w3.org/2000/svg"
  xmlns:xlink="http://www.w3.org/1999/xlink"
  width="2400"
  height="1800"
>
  
  <rect
    x="0"
    y="0"
    width="100%"
    height="100%"
    fill="rgba(255,255,255,0)"
    fill-opacity="1"
  ></rect>
  <svg
    version="1.0"
    xmlns="http://www.w3.org/2000/svg"
    xmlns:xlink="http://www.w3.org/1999/xlink"
    x="0"
    y="0"
    width="2400"
    height="1800"
    viewBox="0 0 340.000000 250.000000"
    preserveAspectRatio="xMidYMid meet"
    color-interpolation-filters="sRGB"
  >
    <defs><linearGradient id="92" x1="0%" y1="0%" x2="100%" y2="0%"><stop offset="0%" stop-color="#fa71cd"/> <stop offset="100%" stop-color="#9b59b6"/></linearGradient><linearGradient id="93" x1="0%" y1="0%" x2="100%" y2="0%"><stop offset="0%" stop-color="#f9d423"/> <stop offset="100%" stop-color="#f83600"/></linearGradient><linearGradient id="94" x1="0%" y1="0%" x2="100%" y2="0%"><stop offset="0%" stop-color="#0064d2"/> <stop offset="100%" stop-color="#1cb0f6"/></linearGradient><linearGradient id="95" x1="0%" y1="0%" x2="100%" y2="0%"><stop offset="0%" stop-color="#f00978"/> <stop offset="100%" stop-color="#3f51b1"/></linearGradient><linearGradient id="96" x1="0%" y1="0%" x2="100%" y2="0%"><stop offset="0%" stop-color="#7873f5"/> <stop offset="100%" stop-color="#ec77ab"/></linearGradient><linearGradient id="97" x1="0%" y1="0%" x2="100%" y2="0%"><stop offset="0%" stop-color="#f9d423"/> <stop offset="100%" stop-color="#e14fad"/></linearGradient><linearGradient id="98" x1="0%" y1="0%" x2="100%" y2="0%"><stop offset="0%" stop-color="#009efd"/> <stop offset="100%" stop-color="#2af598"/></linearGradient><linearGradient id="99" x1="0%" y1="0%" x2="100%" y2="0%"><stop offset="0%" stop-color="#ffcc00"/> <stop offset="100%" stop-color="#00b140"/></linearGradient><linearGradient id="100" x1="0%" y1="0%" x2="100%" y2="0%"><stop offset="0%" stop-color="#d51007"/> <stop offset="100%" stop-color="#ff8177"/></linearGradient><linearGradient id="102" x1="0%" y1="0%" x2="100%" y2="0%"><stop offset="0%" stop-color="#a2b6df"/> <stop offset="100%" stop-color="#0c3483"/></linearGradient><linearGradient id="103" x1="0%" y1="0%" x2="100%" y2="0%"><stop offset="0%" stop-color="#7ac5d8"/> <stop offset="100%" stop-color="#eea2a2"/></linearGradient><linearGradient id="104" x1="0%" y1="0%" x2="100%" y2="0%"><stop offset="0%" stop-color="#00ecbc"/> <stop offset="100%" stop-color="#007adf"/></linearGradient><linearGradient id="105" x1="0%" y1="0%" x2="100%" y2="0%"><stop offset="0%" stop-color="#b88746"/> <stop offset="100%" stop-color="#fdf5a6"/></linearGradient></defs> <g fill="#b722ff" class="icon-text-wrapper icon-svg-group iconsvg" transform="translate(74.14498901367188,95.80888557434082)"><g class="iconsvg-imagesvg" transform="translate(0,0)" mask="url(#bb2d2bdd-144c-4353-83e2-a3f309b0412c)"><g><rect fill="#b722ff" fill-opacity="0" stroke-width="2" x="0" y="0" width="60.00000000000001" height="58.382228449659934" class="image-rect"/> <svg filter="url(#colors6737750112)" x="0" y="0" width="60.00000000000001" height="58.382228449659934" filtersec="colorsf7833533559" class="image-svg-svg primary" style="overflow: visible;"><svg xmlns="http://www.w3.org/2000/svg" xmlns:xlink="http://www.w3.org/1999/xlink" xml:space="preserve" version="1.1" viewBox="0.08024406433105469 0.0806884765625 728.154052734375 708.5238037109375" x="0px" y="0px" fill-rule="evenodd" clip-rule="evenodd"><defs/><g><path d="M120 419c-25,-15 -47,-30 -64,-46 -24,8 -47,-17 -36,-41 -76,-116 84,-152 169,-154 7,-207 130,-240 239,-64 20,-10 39,-19 58,-26 4,-26 34,-34 52,-14 153,-27 124,120 72,214 189,113 141,236 -70,241 -1,13 -2,26 -4,38 8,4 15,11 17,19 5,19 -8,37 -27,38 -47,157 -166,65 -225,-31 -187,102 -289,18 -181,-174l0 0zm175 -46c-10,-37 13,-77 51,-87 38,-10 77,13 87,50 11,39 -12,78 -50,88 -38,10 -77,-12 -88,-51zm-250 -59c21,-1 36,16 32,37 16,14 35,29 57,43 19,-29 41,-59 65,-88 -5,-35 -9,-67 -10,-98 -55,2 -201,19 -144,106zm355 174c35,-30 68,-62 98,-96 -9,-47 -21,-93 -37,-139 -44,-14 -87,-25 -132,-33 -36,30 -68,61 -98,95 9,47 21,94 37,139 43,14 87,25 132,34zm-117 2c9,22 19,43 29,62 19,-13 37,-25 57,-39 -29,-7 -57,-14 -86,-23zm157 4c24,3 47,4 69,5 -1,-23 -3,-45 -6,-68 -20,22 -41,42 -63,63zm83 -131c17,-22 32,-43 45,-64 -22,-12 -45,-22 -71,-33 10,33 18,64 26,97zm-77 -146c-9,-22 -19,-43 -29,-61 -19,12 -38,24 -57,39 29,6 58,13 86,22zm-157 -2c-25,-4 -47,-5 -69,-7 1,22 3,44 6,68 20,-22 40,-42 63,-61zm-83 129c-17,22 -32,43 -45,64 22,12 45,22 71,32 -11,-31 -19,-62 -26,-96zm14 -166c32,1 66,4 100,10 27,-22 55,-42 82,-58 -93,-150 -176,-128 -182,48zm323 -76c-6,21 -31,28 -48,14 -17,7 -34,14 -52,24 15,27 28,57 40,90 37,13 71,27 101,43 35,-63 82,-191 -41,-171zm52 212c-18,28 -40,58 -66,87 6,34 10,66 10,97 178,-4 218,-87 56,-184zm-97 296c-9,-14 -6,-31 8,-41 2,-12 2,-26 3,-40 -32,-1 -65,-3 -100,-10 -28,23 -55,42 -82,59 46,72 135,165 171,32zm-213 -44c-14,-26 -28,-57 -40,-88 -36,-14 -70,-28 -100,-44 -92,165 -17,218 140,132z"/></g></svg></svg> <defs><filter id="colors6737750112"><feColorMatrix type="matrix" values="0 0 0 0 0.0390625  0 0 0 0 0.0234375  0 0 0 0 0.09765625  0 0 0 1 0" class="icon-feColorMatrix "/></filter> <filter id="colorsf7833533559"><feColorMatrix type="matrix" values="0 0 0 0 0.99609375  0 0 0 0 0.99609375  0 0 0 0 0.99609375  0 0 0 1 0" class="icon-fecolormatrix"/></filter> <filter id="colorsb5506309830"><feColorMatrix type="matrix" values="0 0 0 0 0  0 0 0 0 0  0 0 0 0 0  0 0 0 1 0" class="icon-fecolormatrix"/></filter></defs></g><rect v-gra="id" width="72" height="70.38222885131836" transform="translate(-6, -6)" style="pointer-events:none;" fill="url(#w5-rUwm1M9gi86sTfIRDq)"/></g> <g transform="translate(67,5.404167175292969)"><g fill-rule="" class="tp-name iconsvg-namesvg" fill="url(#35ace9ad-da31-4ec4-b86a-2f443f8a5e33)"><g transform="scale(1)"><g><path d="M31.66-23.01L31.66 0 27.1 0 27.1-14.85 19.08-0.75Q18.79-0.21 18.25 0.07 17.72 0.35 17.12 0.35L17.12 0.35Q16.52 0.35 16.01 0.07 15.5-0.21 15.2-0.75L15.2-0.75 7.15-14.85 7.15 0 2.63 0 2.63-23.01Q2.63-23.79 3.09-24.4 3.55-25.01 4.3-25.22L4.3-25.22Q4.66-25.31 5.03-25.28 5.39-25.26 5.73-25.13 6.07-24.99 6.35-24.76 6.63-24.53 6.82-24.19L6.82-24.19 17.12-6.3 27.41-24.19Q27.81-24.86 28.52-25.13 29.22-25.41 29.99-25.22L29.99-25.22Q30.72-25.01 31.19-24.4 31.66-23.79 31.66-23.01L31.66-23.01ZM57.42-14.75L57.42-10.19 43.14-10.19 43.14-14.75 57.42-14.75ZM59.45-4.52L59.45 0 43.14 0Q42.2 0 41.08-0.33 39.97-0.66 39.02-1.42 38.07-2.17 37.44-3.38 36.8-4.59 36.8-6.35L36.8-6.35 36.8-22.66Q36.8-23.13 36.98-23.55 37.15-23.97 37.46-24.28 37.76-24.59 38.18-24.77 38.6-24.94 39.08-24.94L39.08-24.94 59.45-24.94 59.45-20.42 41.33-20.42 41.33-6.35Q41.33-5.46 41.8-4.99 42.27-4.52 43.17-4.52L43.17-4.52 59.45-4.52ZM88.67-16.56L88.67-14.51Q88.67-12.96 88.29-11.74 87.91-10.52 87.26-9.59 86.6-8.66 85.75-8 84.9-7.34 83.97-6.92 83.04-6.51 82.09-6.31 81.14-6.12 80.31-6.12L80.31-6.12 70.08-6.12 70.08-10.64 80.31-10.64Q81.18-10.71 81.88-11 82.58-11.29 83.09-11.78 83.59-12.26 83.87-12.95 84.15-13.64 84.15-14.51L84.15-14.51 84.15-16.56Q84.06-17.41 83.79-18.12 83.51-18.84 83.03-19.34 82.55-19.85 81.87-20.13 81.19-20.42 80.31-20.42L80.31-20.42 70.11-20.42Q69.21-20.42 68.74-19.95 68.27-19.48 68.27-18.59L68.27-18.59 68.27 0 63.75 0 63.75-18.59Q63.75-20.33 64.38-21.55 65.02-22.77 65.97-23.52 66.91-24.26 68.03-24.6 69.14-24.94 70.08-24.94L70.08-24.94 80.31-24.94Q81.84-24.94 83.05-24.55 84.27-24.16 85.2-23.51 86.13-22.86 86.79-22 87.44-21.15 87.86-20.22 88.29-19.29 88.48-18.34 88.67-17.39 88.67-16.56L88.67-16.56ZM97.09-24.94L97.09-14.75 112.97-14.75 112.97-24.94 117.49-24.94 117.49 0 112.97 0 112.97-10.19 97.09-10.19 97.09 0 92.57 0 92.57-24.94 97.09-24.94ZM127.34-24.94L127.34 0 122.82 0 122.82-24.94 127.34-24.94Z" transform="translate(-2.630000114440918, 25.29680824279785)"/></g> <g fill="url(#e87e8c11-5b11-418b-a05d-d56d70a1c645)" transform="translate(0,28.646808624267578)"><g transform="scale(0.98476)"><path d="M19.68-3.49L19.68 0 3.78 0Q3.4 0 3.08-0.13 2.76-0.27 2.53-0.5 2.29-0.74 2.16-1.06 2.02-1.38 2.02-1.76L2.02-1.76 2.02-19.22 5.51-19.22 5.51-3.49 19.68-3.49ZM37.96-11.37L37.96-7.86 26.96-7.86 26.96-11.37 37.96-11.37ZM39.53-3.49L39.53 0 26.96 0Q26.23 0 25.38-0.25 24.52-0.51 23.79-1.09 23.06-1.68 22.57-2.61 22.08-3.54 22.08-4.89L22.08-4.89 22.08-17.47Q22.08-17.83 22.21-18.15 22.35-18.47 22.58-18.71 22.82-18.95 23.14-19.09 23.46-19.22 23.83-19.22L23.83-19.22 39.53-19.22 39.53-15.74 25.56-15.74 25.56-4.89Q25.56-4.21 25.92-3.85 26.29-3.49 26.98-3.49L26.98-3.49 39.53-3.49ZM61.76-17.47L61.76 0 58.27 0 58.27-4.72 46.02-4.72 46.02 0 42.53 0 42.53-9.61Q42.53-11.72 43.26-13.49 43.98-15.25 45.27-16.53 46.55-17.8 48.31-18.51 50.07-19.22 52.14-19.22L52.14-19.22 60-19.22Q60.36-19.22 60.68-19.09 61.01-18.95 61.25-18.71 61.49-18.47 61.62-18.15 61.76-17.83 61.76-17.47L61.76-17.47ZM46.02-9.61L46.02-8.2 58.27-8.2 58.27-15.74 52.14-15.74Q51.98-15.74 51.47-15.69 50.95-15.64 50.27-15.46 49.6-15.27 48.85-14.88 48.1-14.49 47.47-13.81 46.84-13.12 46.43-12.1 46.02-11.07 46.02-9.61L46.02-9.61ZM84.77-9.61L84.77-1.76Q84.77-1.38 84.64-1.06 84.5-0.74 84.27-0.5 84.03-0.27 83.71-0.13 83.39 0 83.02 0L83.02 0 70.44 0Q69.96 0 69.4-0.11 68.85-0.23 68.3-0.47 67.76-0.71 67.27-1.09 66.77-1.47 66.39-2.02 66.01-2.56 65.78-3.28 65.55-3.99 65.55-4.89L65.55-4.89 65.55-14.33Q65.55-14.81 65.66-15.37 65.78-15.92 66.02-16.47 66.26-17.01 66.65-17.51 67.04-18 67.58-18.38 68.12-18.77 68.83-18.99 69.54-19.22 70.44-19.22L70.44-19.22 84.61-19.22 84.61-15.74 70.44-15.74Q69.76-15.74 69.4-15.38 69.03-15.01 69.03-14.3L69.03-14.3 69.03-4.89Q69.03-4.22 69.4-3.85 69.77-3.49 70.44-3.49L70.44-3.49 81.29-3.49 81.29-7.86 72.01-7.86 72.01-11.37 83.02-11.37Q83.39-11.37 83.71-11.23 84.03-11.09 84.27-10.84 84.5-10.6 84.64-10.29 84.77-9.97 84.77-9.61L84.77-9.61ZM107.24-19.22L107.24-1.76Q107.24-1.38 107.1-1.06 106.97-0.74 106.73-0.5 106.49-0.27 106.17-0.13 105.84 0 105.48 0L105.48 0 97.63 0Q96.51 0 95.38-0.24 94.24-0.48 93.17-0.99 92.1-1.49 91.17-2.27 90.23-3.04 89.52-4.11 88.82-5.17 88.42-6.55 88.02-7.92 88.02-9.61L88.02-9.61 88.02-19.22 91.5-19.22 91.5-9.61Q91.5-8.14 91.91-7.12 92.32-6.1 92.95-5.42 93.58-4.73 94.33-4.34 95.08-3.95 95.76-3.77 96.43-3.58 96.95-3.53 97.47-3.49 97.63-3.49L97.63-3.49 103.75-3.49 103.75-19.22 107.24-19.22ZM127.09-11.37L127.09-7.86 116.09-7.86 116.09-11.37 127.09-11.37ZM128.66-3.49L128.66 0 116.09 0Q115.36 0 114.5-0.25 113.65-0.51 112.92-1.09 112.18-1.68 111.7-2.61 111.21-3.54 111.21-4.89L111.21-4.89 111.21-17.47Q111.21-17.83 111.34-18.15 111.47-18.47 111.71-18.71 111.94-18.95 112.27-19.09 112.59-19.22 112.96-19.22L112.96-19.22 128.66-19.22 128.66-15.74 114.69-15.74 114.69-4.89Q114.69-4.21 115.05-3.85 115.42-3.49 116.11-3.49L116.11-3.49 128.66-3.49Z" transform="translate(-2.0199999809265137, 19.219999313354492)"/></g></g></g></g> </g></g><defs v-gra="od"><linearGradient x1="0" y1="1" x2="0" y2="0" id="35ace9ad-da31-4ec4-b86a-2f443f8a5e33"><stop offset="0%" stop-color="#b722ff"/><stop offset="100%" stop-color="#22d4fe"/></linearGradient><filter id="42443b3f1de60f6b6fd3b6a9844b4764" filterUnits="objectBoundingBox"><feColorMatrix type="matrix" values="0 0 0 0 0.99609375  0 0 0 0 0.99609375  0 0 0 0 0.99609375  0 0 0 1 0"/></filter><linearGradient x1="0" y1="1" x2="0" y2="0" id="e87e8c11-5b11-418b-a05d-d56d70a1c645"><stop offset="0%" stop-color="#b722ff"/><stop offset="100%" stop-color="#22d4fe"/></linearGradient><filter id="42443b3f1de60f6b6fd3b6a9844b4764" filterUnits="objectBoundingBox"><feColorMatrix type="matrix" values="0 0 0 0 0.99609375  0 0 0 0 0.99609375  0 0 0 0 0.99609375  0 0 0 1 0"/></filter></defs><defs v-gra="id"><filter id="6ad59f4e-e62d-4aa4-8792-9b9b73cb1c21" filterUnits="userSpaceOnUse"><feColorMatrix type="matrix" values="0 0 0 0 0.99609375  0 0 0 0 0.99609375  0 0 0 0 0.99609375  0 0 0 1 0"/></filter><linearGradient x1="0" y1="1" x2="0" y2="0" id="w5-rUwm1M9gi86sTfIRDq"><stop offset="0%" stop-color="#b722ff"/><stop offset="100%" stop-color="#22d4fe"/></linearGradient><filter id="42443b3f1de60f6b6fd3b6a9844b4764" filterUnits="objectBoundingBox"><feColorMatrix type="matrix" values="0 0 0 0 0.99609375  0 0 0 0 0.99609375  0 0 0 0 0.99609375  0 0 0 1 0"/></filter></defs><mask v-gra="im" id="bb2d2bdd-144c-4353-83e2-a3f309b0412c"><g class="iconsvg-imagesvg" filter="url(#6ad59f4e-e62d-4aa4-8792-9b9b73cb1c21)"><g><rect fill="#b722ff" fill-opacity="0" stroke-width="2" x="0" y="0" width="60.00000000000001" height="58.382228449659934" class="image-rect"/> <svg x="0" y="0" width="60.00000000000001" height="58.382228449659934" filtersec="colorsf7833533559" class="image-svg-svg primary" style="overflow: visible;"><svg xmlns="http://www.w3.org/2000/svg" xmlns:xlink="http://www.w3.org/1999/xlink" xml:space="preserve" version="1.1" viewBox="0.08024406433105469 0.0806884765625 728.154052734375 708.5238037109375" x="0px" y="0px" fill-rule="evenodd" clip-rule="evenodd"><defs/><g><path d="M120 419c-25,-15 -47,-30 -64,-46 -24,8 -47,-17 -36,-41 -76,-116 84,-152 169,-154 7,-207 130,-240 239,-64 20,-10 39,-19 58,-26 4,-26 34,-34 52,-14 153,-27 124,120 72,214 189,113 141,236 -70,241 -1,13 -2,26 -4,38 8,4 15,11 17,19 5,19 -8,37 -27,38 -47,157 -166,65 -225,-31 -187,102 -289,18 -181,-174l0 0zm175 -46c-10,-37 13,-77 51,-87 38,-10 77,13 87,50 11,39 -12,78 -50,88 -38,10 -77,-12 -88,-51zm-250 -59c21,-1 36,16 32,37 16,14 35,29 57,43 19,-29 41,-59 65,-88 -5,-35 -9,-67 -10,-98 -55,2 -201,19 -144,106zm355 174c35,-30 68,-62 98,-96 -9,-47 -21,-93 -37,-139 -44,-14 -87,-25 -132,-33 -36,30 -68,61 -98,95 9,47 21,94 37,139 43,14 87,25 132,34zm-117 2c9,22 19,43 29,62 19,-13 37,-25 57,-39 -29,-7 -57,-14 -86,-23zm157 4c24,3 47,4 69,5 -1,-23 -3,-45 -6,-68 -20,22 -41,42 -63,63zm83 -131c17,-22 32,-43 45,-64 -22,-12 -45,-22 -71,-33 10,33 18,64 26,97zm-77 -146c-9,-22 -19,-43 -29,-61 -19,12 -38,24 -57,39 29,6 58,13 86,22zm-157 -2c-25,-4 -47,-5 -69,-7 1,22 3,44 6,68 20,-22 40,-42 63,-61zm-83 129c-17,22 -32,43 -45,64 22,12 45,22 71,32 -11,-31 -19,-62 -26,-96zm14 -166c32,1 66,4 100,10 27,-22 55,-42 82,-58 -93,-150 -176,-128 -182,48zm323 -76c-6,21 -31,28 -48,14 -17,7 -34,14 -52,24 15,27 28,57 40,90 37,13 71,27 101,43 35,-63 82,-191 -41,-171zm52 212c-18,28 -40,58 -66,87 6,34 10,66 10,97 178,-4 218,-87 56,-184zm-97 296c-9,-14 -6,-31 8,-41 2,-12 2,-26 3,-40 -32,-1 -65,-3 -100,-10 -28,23 -55,42 -82,59 46,72 135,165 171,32zm-213 -44c-14,-26 -28,-57 -40,-88 -36,-14 -70,-28 -100,-44 -92,165 -17,218 140,132z"/></g></svg></svg> <defs><filter id="colors6737750112"><feColorMatrix type="matrix" values="0 0 0 0 0.0390625  0 0 0 0 0.0234375  0 0 0 0 0.09765625  0 0 0 1 0" class="icon-fecolormatrix"/></filter> <filter id="colorsf7833533559"><feColorMatrix type="matrix" values="0 0 0 0 0.99609375  0 0 0 0 0.99609375  0 0 0 0 0.99609375  0 0 0 1 0" class="icon-fecolormatrix"/></filter> <filter id="colorsb5506309830"><feColorMatrix type="matrix" values="0 0 0 0 0  0 0 0 0 0  0 0 0 0 0  0 0 0 1 0" class="icon-fecolormatrix"/></filter></defs></g></g></mask>
  </svg>
</svg>


